<svg width="141" height="40" viewBox="0 0 141 40" fill="none" xmlns="http://www.w3.org/2000/svg">
<path d="M8.38 38.32C6.9 38.32 5.56667 38.0133 4.38 37.4C3.19333 36.7733 2.26 35.9067 1.58 34.8C0.913333 33.68 0.58 32.4133 0.58 31C0.58 29.5867 0.913333 28.3267 1.58 27.22C2.26 26.1 3.19333 25.2333 4.38 24.62C5.56667 23.9933 6.9 23.68 8.38 23.68C9.74 23.68 10.9533 23.92 12.02 24.4C13.0867 24.88 13.9667 25.5733 14.66 26.48L11.68 29.14C10.8133 28.0467 9.79333 27.5 8.62 27.5C7.63333 27.5 6.84 27.82 6.24 28.46C5.64 29.0867 5.34 29.9333 5.34 31C5.34 32.0667 5.64 32.92 6.24 33.56C6.84 34.1867 7.63333 34.5 8.62 34.5C9.79333 34.5 10.8133 33.9533 11.68 32.86L14.66 35.52C13.9667 36.4267 13.0867 37.12 12.02 37.6C10.9533 38.08 9.74 38.32 8.38 38.32ZM21.3828 26.86C23.3028 26.86 24.7695 27.2933 25.7828 28.16C26.7961 29.0133 27.3028 30.3333 27.3028 32.12V38H23.1028V36.56C22.5828 37.6533 21.5495 38.2 20.0028 38.2C19.1361 38.2 18.3961 38.0533 17.7828 37.76C17.1828 37.4533 16.7228 37.0467 16.4028 36.54C16.0961 36.02 15.9428 35.44 15.9428 34.8C15.9428 33.72 16.3561 32.9 17.1828 32.34C18.0095 31.78 19.2628 31.5 20.9428 31.5H22.7628C22.6161 30.6467 21.9295 30.22 20.7028 30.22C20.2095 30.22 19.7095 30.3 19.2028 30.46C18.6961 30.6067 18.2628 30.8133 17.9028 31.08L16.4628 28.1C17.0895 27.7133 17.8428 27.4133 18.7228 27.2C19.6161 26.9733 20.5028 26.86 21.3828 26.86ZM21.3628 35.48C21.6828 35.48 21.9695 35.3933 22.2228 35.22C22.4761 35.0467 22.6628 34.7867 22.7828 34.44V33.68H21.6628C20.7428 33.68 20.2828 33.9867 20.2828 34.6C20.2828 34.8533 20.3761 35.0667 20.5628 35.24C20.7628 35.4 21.0295 35.48 21.3628 35.48ZM29.8563 23.16H34.3763V38H29.8563V23.16ZM42.8597 38.2C41.6197 38.2 40.5064 37.96 39.5197 37.48C38.5464 37 37.7797 36.3267 37.2197 35.46C36.673 34.5933 36.3997 33.6133 36.3997 32.52C36.3997 31.4267 36.673 30.4533 37.2197 29.6C37.7797 28.7333 38.5464 28.06 39.5197 27.58C40.5064 27.1 41.6197 26.86 42.8597 26.86C44.193 26.86 45.333 27.1467 46.2797 27.72C47.2264 28.2933 47.8797 29.0867 48.2397 30.1L44.7397 31.82C44.313 30.86 43.6797 30.38 42.8397 30.38C42.3064 30.38 41.8597 30.5667 41.4997 30.94C41.153 31.3133 40.9797 31.84 40.9797 32.52C40.9797 33.2133 41.153 33.7467 41.4997 34.12C41.8597 34.4933 42.3064 34.68 42.8397 34.68C43.6797 34.68 44.313 34.2 44.7397 33.24L48.2397 34.96C47.8797 35.9733 47.2264 36.7667 46.2797 37.34C45.333 37.9133 44.193 38.2 42.8597 38.2ZM61.8444 27.06V38H57.5444V36.96C57.1444 37.3733 56.6777 37.6867 56.1444 37.9C55.611 38.1 55.0444 38.2 54.4444 38.2C53.0577 38.2 51.9444 37.78 51.1044 36.94C50.2644 36.0867 49.8444 34.8067 49.8444 33.1V27.06H54.3644V32.32C54.3644 33.0667 54.4844 33.6 54.7244 33.92C54.9644 34.24 55.3177 34.4 55.7844 34.4C56.2244 34.4 56.591 34.2267 56.8844 33.88C57.1777 33.52 57.3244 32.96 57.3244 32.2V27.06H61.8444ZM64.4492 23.16H68.9692V38H64.4492V23.16ZM76.4727 26.86C78.3927 26.86 79.8593 27.2933 80.8727 28.16C81.886 29.0133 82.3927 30.3333 82.3927 32.12V38H78.1927V36.56C77.6727 37.6533 76.6393 38.2 75.0927 38.2C74.226 38.2 73.486 38.0533 72.8727 37.76C72.2727 37.4533 71.8127 37.0467 71.4927 36.54C71.186 36.02 71.0327 35.44 71.0327 34.8C71.0327 33.72 71.446 32.9 72.2727 32.34C73.0993 31.78 74.3527 31.5 76.0327 31.5H77.8527C77.706 30.6467 77.0193 30.22 75.7927 30.22C75.2993 30.22 74.7993 30.3 74.2927 30.46C73.786 30.6067 73.3527 30.8133 72.9927 31.08L71.5527 28.1C72.1793 27.7133 72.9327 27.4133 73.8127 27.2C74.706 26.9733 75.5927 26.86 76.4727 26.86ZM76.4527 35.48C76.7727 35.48 77.0593 35.3933 77.3127 35.22C77.566 35.0467 77.7527 34.7867 77.8727 34.44V33.68H76.7527C75.8327 33.68 75.3727 33.9867 75.3727 34.6C75.3727 34.8533 75.466 35.0667 75.6527 35.24C75.8527 35.4 76.1193 35.48 76.4527 35.48ZM93.0061 37.62C92.3261 38.0067 91.3994 38.2 90.2261 38.2C88.6928 38.2 87.5128 37.8333 86.6861 37.1C85.8594 36.3533 85.4461 35.24 85.4461 33.76V30.96H83.9461V27.66H85.4461V24.6H89.9661V27.66H92.2061V30.96H89.9661V33.72C89.9661 34.0533 90.0528 34.3133 90.2261 34.5C90.3994 34.6867 90.6261 34.78 90.9061 34.78C91.2928 34.78 91.6328 34.68 91.9261 34.48L93.0061 37.62ZM94.7453 27.06H99.2653V38H94.7453V27.06ZM97.0053 26.18C96.192 26.18 95.532 25.9667 95.0253 25.54C94.532 25.1 94.2853 24.5467 94.2853 23.88C94.2853 23.2133 94.532 22.6667 95.0253 22.24C95.532 21.8 96.192 21.58 97.0053 21.58C97.832 21.58 98.492 21.7867 98.9853 22.2C99.4786 22.6133 99.7253 23.1467 99.7253 23.8C99.7253 24.4933 99.4786 25.0667 98.9853 25.52C98.492 25.96 97.832 26.18 97.0053 26.18ZM107.649 38.2C106.435 38.2 105.342 37.96 104.369 37.48C103.409 36.9867 102.655 36.3133 102.109 35.46C101.562 34.5933 101.289 33.6133 101.289 32.52C101.289 31.4267 101.562 30.4533 102.109 29.6C102.655 28.7333 103.409 28.06 104.369 27.58C105.342 27.1 106.435 26.86 107.649 26.86C108.875 26.86 109.969 27.1 110.929 27.58C111.902 28.06 112.655 28.7333 113.189 29.6C113.735 30.4533 114.009 31.4267 114.009 32.52C114.009 33.6133 113.735 34.5933 113.189 35.46C112.655 36.3133 111.902 36.9867 110.929 37.48C109.969 37.96 108.875 38.2 107.649 38.2ZM107.649 34.68C108.169 34.68 108.595 34.4933 108.929 34.12C109.262 33.7333 109.429 33.2 109.429 32.52C109.429 31.84 109.262 31.3133 108.929 30.94C108.595 30.5667 108.169 30.38 107.649 30.38C107.129 30.38 106.702 30.5667 106.369 30.94C106.035 31.3133 105.869 31.84 105.869 32.52C105.869 33.2 106.035 33.7333 106.369 34.12C106.702 34.4933 107.129 34.68 107.649 34.68ZM123.623 26.86C124.97 26.86 126.05 27.2667 126.863 28.08C127.69 28.8933 128.103 30.12 128.103 31.76V38H123.583V32.54C123.583 31.2867 123.137 30.66 122.243 30.66C121.737 30.66 121.323 30.84 121.003 31.2C120.697 31.5467 120.543 32.1 120.543 32.86V38H116.023V27.06H120.323V28.14C120.75 27.7133 121.243 27.3933 121.803 27.18C122.363 26.9667 122.97 26.86 123.623 26.86ZM134.946 38.2C134.013 38.2 133.093 38.1 132.186 37.9C131.28 37.7 130.546 37.44 129.986 37.12L131.226 34.14C131.733 34.4467 132.333 34.6867 133.026 34.86C133.72 35.0333 134.393 35.12 135.046 35.12C135.566 35.12 135.926 35.08 136.126 35C136.34 34.9067 136.446 34.7733 136.446 34.6C136.446 34.4267 136.313 34.3067 136.046 34.24C135.793 34.1733 135.373 34.1067 134.786 34.04C133.893 33.9333 133.133 33.8 132.506 33.64C131.88 33.4667 131.326 33.14 130.846 32.66C130.38 32.18 130.146 31.4933 130.146 30.6C130.146 29.8933 130.36 29.26 130.786 28.7C131.213 28.14 131.846 27.6933 132.686 27.36C133.54 27.0267 134.56 26.86 135.746 26.86C136.573 26.86 137.38 26.94 138.166 27.1C138.966 27.2467 139.646 27.4667 140.206 27.76L138.966 30.74C138.006 30.2067 136.953 29.94 135.806 29.94C134.82 29.94 134.326 30.1133 134.326 30.46C134.326 30.6333 134.46 30.76 134.726 30.84C134.993 30.9067 135.413 30.9733 135.986 31.04C136.88 31.1467 137.633 31.2867 138.246 31.46C138.873 31.6333 139.42 31.96 139.886 32.44C140.366 32.92 140.606 33.6067 140.606 34.5C140.606 35.18 140.393 35.8 139.966 36.36C139.54 36.92 138.9 37.3667 138.046 37.7C137.193 38.0333 136.16 38.2 134.946 38.2Z" fill="#E6EC7A"/>
<circle cx="11.5" cy="10.5" r="6.5" fill="white"/>
<path d="M31.88 3C33.1733 3 34.3 3.21333 35.26 3.64C36.22 4.06667 36.96 4.68 37.48 5.48C38 6.28 38.26 7.21333 38.26 8.28C38.26 9.34667 38 10.28 37.48 11.08C36.96 11.88 36.22 12.4933 35.26 12.92C34.3 13.3467 33.1733 13.56 31.88 13.56H29.86V17H25.14V3H31.88ZM31.58 9.92C32.22 9.92 32.7 9.78 33.02 9.5C33.34 9.20667 33.5 8.8 33.5 8.28C33.5 7.76 33.34 7.36 33.02 7.08C32.7 6.78667 32.22 6.64 31.58 6.64H29.86V9.92H31.58ZM45.0703 5.86C46.9903 5.86 48.457 6.29333 49.4703 7.16C50.4836 8.01333 50.9903 9.33333 50.9903 11.12V17H46.7903V15.56C46.2703 16.6533 45.237 17.2 43.6903 17.2C42.8236 17.2 42.0836 17.0533 41.4703 16.76C40.8703 16.4533 40.4103 16.0467 40.0903 15.54C39.7836 15.02 39.6303 14.44 39.6303 13.8C39.6303 12.72 40.0436 11.9 40.8703 11.34C41.697 10.78 42.9503 10.5 44.6303 10.5H46.4503C46.3036 9.64667 45.617 9.22 44.3903 9.22C43.897 9.22 43.397 9.3 42.8903 9.46C42.3836 9.60667 41.9503 9.81333 41.5903 10.08L40.1503 7.1C40.777 6.71333 41.5303 6.41333 42.4103 6.2C43.3036 5.97333 44.1903 5.86 45.0703 5.86ZM45.0503 14.48C45.3703 14.48 45.657 14.3933 45.9103 14.22C46.1636 14.0467 46.3503 13.7867 46.4703 13.44V12.68H45.3503C44.4303 12.68 43.9703 12.9867 43.9703 13.6C43.9703 13.8533 44.0636 14.0667 44.2503 14.24C44.4503 14.4 44.717 14.48 45.0503 14.48ZM65.5284 6.06L61.0284 17.22C60.4551 18.6467 59.7418 19.6467 58.8884 20.22C58.0351 20.7933 56.9884 21.08 55.7484 21.08C55.1351 21.08 54.5151 20.9867 53.8884 20.8C53.2751 20.6267 52.7884 20.3933 52.4284 20.1L53.9284 17C54.1551 17.1733 54.4084 17.3133 54.6884 17.42C54.9818 17.5267 55.2618 17.58 55.5284 17.58C56.0218 17.58 56.3951 17.4333 56.6484 17.14L52.0484 6.06H56.6884L58.9484 11.92L61.2484 6.06H65.5284ZM71.1195 7.24C71.9195 6.32 73.0995 5.86 74.6595 5.86V9.86C74.2995 9.80667 73.9662 9.78 73.6595 9.78C72.1129 9.78 71.3395 10.5667 71.3395 12.14V17H66.8195V6.06H71.1195V7.24ZM82.223 17.2C81.0096 17.2 79.9163 16.96 78.943 16.48C77.983 15.9867 77.2296 15.3133 76.683 14.46C76.1363 13.5933 75.863 12.6133 75.863 11.52C75.863 10.4267 76.1363 9.45333 76.683 8.6C77.2296 7.73333 77.983 7.06 78.943 6.58C79.9163 6.1 81.0096 5.86 82.223 5.86C83.4496 5.86 84.543 6.1 85.503 6.58C86.4763 7.06 87.2296 7.73333 87.763 8.6C88.3096 9.45333 88.583 10.4267 88.583 11.52C88.583 12.6133 88.3096 13.5933 87.763 14.46C87.2296 15.3133 86.4763 15.9867 85.503 16.48C84.543 16.96 83.4496 17.2 82.223 17.2ZM82.223 13.68C82.743 13.68 83.1696 13.4933 83.503 13.12C83.8363 12.7333 84.003 12.2 84.003 11.52C84.003 10.84 83.8363 10.3133 83.503 9.94C83.1696 9.56667 82.743 9.38 82.223 9.38C81.703 9.38 81.2763 9.56667 80.943 9.94C80.6096 10.3133 80.443 10.84 80.443 11.52C80.443 12.2 80.6096 12.7333 80.943 13.12C81.2763 13.4933 81.703 13.68 82.223 13.68ZM90.5977 2.16H95.1177V17H90.5977V2.16ZM97.7211 2.16H102.241V17H97.7211V2.16Z" fill="#E6EC7A"/>
</svg>
