<svg width="91" height="149" viewBox="0 0 91 149" fill="none" xmlns="http://www.w3.org/2000/svg">
<g clip-path="url(#clip0_17_202)">
<path d="M2.27728e-05 146.25C2.27091e-05 147.708 1.182 148.89 2.64003 148.89C4.09806 148.89 5.28003 147.708 5.28003 146.25C5.28003 144.792 4.09806 143.61 2.64003 143.61C1.182 143.61 2.28365e-05 144.792 2.27728e-05 146.25Z" fill="#A855F7"/>
<path d="M2.27728e-05 122.31C2.27091e-05 123.768 1.182 124.95 2.64003 124.95C4.09806 124.95 5.28003 123.768 5.28003 122.31C5.28003 120.852 4.09806 119.67 2.64003 119.67C1.182 119.67 2.28365e-05 120.852 2.27728e-05 122.31Z" fill="#A855F7"/>
<path d="M-0.000202771 98.38C-0.00218215 98.9045 0.151529 99.4178 0.441509 99.8549C0.731489 100.292 1.14472 100.633 1.62876 100.835C2.11281 101.038 2.64592 101.091 3.16062 100.99C3.67533 100.889 4.14845 100.638 4.52006 100.267C4.89167 99.8972 5.14509 99.425 5.24815 98.9107C5.35121 98.3964 5.29932 97.8631 5.09904 97.3782C4.89877 96.8934 4.55909 96.479 4.12309 96.1873C3.68708 95.8957 3.17437 95.7399 2.64982 95.7399C1.94873 95.7399 1.27621 96.0178 0.779521 96.5126C0.282836 97.0075 0.00244275 97.6789 -0.000202771 98.38Z" fill="#A855F7"/>
<path d="M-0.000195619 74.45C-0.000195642 74.9741 0.155213 75.4865 0.446399 75.9223C0.737584 76.3581 1.15144 76.6977 1.63567 76.8983C2.11989 77.0988 2.65275 77.1513 3.1668 77.049C3.68085 76.9468 4.153 76.6944 4.52361 76.3238C4.89422 75.9532 5.14664 75.481 5.24889 74.967C5.35114 74.4529 5.29864 73.9201 5.09807 73.4359C4.8975 72.9516 4.55785 72.5378 4.12206 72.2467C3.68627 71.9555 3.17395 71.8 2.64983 71.8C2.30183 71.8 1.95718 71.8685 1.63567 72.0017C1.31416 72.1348 1.02206 72.3301 0.775989 72.5761C0.529913 72.8222 0.334639 73.1144 0.201465 73.4359C0.0682897 73.7574 -0.000195604 74.102 -0.000195619 74.45Z" fill="#A855F7"/>
<path d="M2.27728e-05 50.51C2.27091e-05 51.968 1.182 53.15 2.64003 53.15C4.09806 53.15 5.28003 51.968 5.28003 50.51C5.28003 49.052 4.09806 47.87 2.64003 47.87C1.182 47.87 2.28365e-05 49.052 2.27728e-05 50.51Z" fill="#A855F7"/>
<path d="M0.314421 27.5903C0.868857 28.9388 2.41151 29.5826 3.76001 29.0281C5.10852 28.4737 5.75218 26.931 5.19775 25.5825C4.64331 24.234 3.10071 23.5903 1.75221 24.1447C0.40371 24.6992 -0.240015 26.2418 0.314421 27.5903Z" fill="#A855F7"/>
<path d="M5.24998 2.65C5.25196 2.12503 5.09796 1.61137 4.80754 1.17405C4.51711 0.736727 4.10332 0.39551 3.61869 0.1937C3.13406 -0.00811087 2.60041 -0.0614304 2.08543 0.0405014C1.57045 0.142433 1.09739 0.394999 0.726178 0.766209C0.354968 1.13742 0.102402 1.61048 0.000469591 2.12546C-0.101462 2.64044 -0.0481426 3.17416 0.153668 3.65879C0.355478 4.14342 0.696634 4.55721 1.13395 4.84763C1.57127 5.13805 2.085 5.29199 2.60997 5.29001C3.30933 5.28738 3.97933 5.00842 4.47386 4.51389C4.96838 4.01936 5.24735 3.34936 5.24998 2.65Z" fill="#A855F7"/>
<path d="M21.4099 146.25C21.4099 147.708 22.5919 148.89 24.0499 148.89C25.508 148.89 26.6899 147.708 26.6899 146.25C26.6899 144.792 25.508 143.61 24.0499 143.61C22.5919 143.61 21.4099 144.792 21.4099 146.25Z" fill="#A855F7"/>
<path d="M21.4099 122.31C21.4099 123.768 22.5919 124.95 24.0499 124.95C25.508 124.95 26.6899 123.768 26.6899 122.31C26.6899 120.852 25.508 119.67 24.0499 119.67C22.5919 119.67 21.4099 120.852 21.4099 122.31Z" fill="#A855F7"/>
<path d="M21.41 98.38C21.408 98.9049 21.562 99.4187 21.8524 99.856C22.1428 100.293 22.5566 100.635 23.0412 100.836C23.5259 101.038 24.0595 101.092 24.5745 100.99C25.0895 100.888 25.5626 100.635 25.9338 100.264C26.305 99.8927 26.5576 99.4195 26.6595 98.9045C26.7615 98.3895 26.7081 97.8559 26.5063 97.3713C26.3045 96.8867 25.9633 96.4729 25.526 96.1825C25.0887 95.892 24.5749 95.738 24.05 95.74C23.3506 95.7426 22.6807 96.0217 22.1861 96.5162C21.6916 97.0107 21.4126 97.6806 21.41 98.38Z" fill="#A855F7"/>
<path d="M21.41 74.45C21.41 74.9746 21.5656 75.4873 21.8573 75.9233C22.1489 76.3593 22.5634 76.699 23.0482 76.8993C23.533 77.0995 24.0663 77.1514 24.5807 77.0483C25.095 76.9452 25.5671 76.6919 25.9374 76.3203C26.3076 75.9487 26.5591 75.4755 26.6603 74.9608C26.7614 74.4461 26.7075 73.913 26.5053 73.4289C26.3032 72.9449 25.962 72.5318 25.5249 72.2418C25.0878 71.9518 24.5745 71.798 24.05 71.8C23.7024 71.8 23.3583 71.8686 23.0374 72.0019C22.7164 72.1352 22.4249 72.3305 22.1797 72.5768C21.9344 72.823 21.7402 73.1152 21.6081 73.4366C21.476 73.7581 21.4086 74.1025 21.41 74.45Z" fill="#A855F7"/>
<path d="M21.4099 50.51C21.4099 51.968 22.5919 53.15 24.0499 53.15C25.508 53.15 26.6899 51.968 26.6899 50.51C26.6899 49.052 25.508 47.87 24.0499 47.87C22.5919 47.87 21.4099 49.052 21.4099 50.51Z" fill="#A855F7"/>
<path d="M21.7167 27.5927C22.2711 28.9412 23.8138 29.5849 25.1623 29.0305C26.5108 28.4761 27.1545 26.9334 26.6001 25.5849C26.0457 24.2364 24.503 23.5927 23.1545 24.1471C21.806 24.7015 21.1623 26.2442 21.7167 27.5927Z" fill="#A855F7"/>
<path d="M21.41 2.65C21.41 3.17454 21.5656 3.68726 21.8573 4.12326C22.1489 4.55927 22.5634 4.89894 23.0482 5.09922C23.533 5.29949 24.0663 5.35145 24.5807 5.24839C25.095 5.14532 25.5671 4.89185 25.9374 4.52024C26.3076 4.14863 26.5591 3.67557 26.6603 3.16086C26.7614 2.64615 26.7075 2.11305 26.5053 1.629C26.3032 1.14495 25.962 0.731725 25.5249 0.441745C25.0878 0.151766 24.5745 -0.00200641 24.05 -2.70206e-05C23.7024 -2.9529e-05 23.3583 0.0685799 23.0374 0.201877C22.7164 0.335175 22.4249 0.530622 22.1797 0.776828C21.9344 1.02304 21.7402 1.31524 21.6081 1.63669C21.476 1.95815 21.4086 2.30247 21.41 2.65Z" fill="#A855F7"/>
<path d="M42.8199 146.25C42.8199 147.708 44.0018 148.89 45.4599 148.89C46.9179 148.89 48.0999 147.708 48.0999 146.25C48.0999 144.792 46.9179 143.61 45.4599 143.61C44.0018 143.61 42.8199 144.792 42.8199 146.25Z" fill="#A855F7"/>
<path d="M42.8199 122.31C42.8199 123.768 44.0018 124.95 45.4599 124.95C46.9179 124.95 48.0999 123.768 48.0999 122.31C48.0999 120.852 46.9179 119.67 45.4599 119.67C44.0018 119.67 42.8199 120.852 42.8199 122.31Z" fill="#A855F7"/>
<path d="M42.8099 98.38C42.8079 98.9045 42.9616 99.4178 43.2516 99.8549C43.5415 100.292 43.9548 100.633 44.4388 100.835C44.9229 101.038 45.456 101.091 45.9707 100.99C46.4854 100.889 46.9585 100.638 47.3301 100.267C47.7017 99.8972 47.9551 99.425 48.0582 98.9107C48.1613 98.3964 48.1094 97.8631 47.9091 97.3783C47.7088 96.8934 47.3692 96.479 46.9331 96.1873C46.4971 95.8957 45.9844 95.7399 45.4599 95.7399C44.7588 95.7399 44.0863 96.0178 43.5896 96.5126C43.0929 97.0075 42.8125 97.6789 42.8099 98.38Z" fill="#A855F7"/>
<path d="M42.8099 74.45C42.8099 74.9741 42.9653 75.4865 43.2565 75.9223C43.5476 76.3581 43.9615 76.6977 44.4457 76.8983C44.93 77.0988 45.4628 77.1513 45.9769 77.049C46.4909 76.9468 46.9631 76.6944 47.3337 76.3238C47.7043 75.9532 47.9567 75.481 48.0589 74.967C48.1612 74.4529 48.1087 73.9201 47.9081 73.4359C47.7076 72.9516 47.3679 72.5378 46.9321 72.2467C46.4963 71.9555 45.984 71.8 45.4599 71.8C45.1119 71.8 44.7672 71.8685 44.4457 72.0017C44.1242 72.1348 43.8321 72.3301 43.586 72.5761C43.34 72.8222 43.1448 73.1144 43.0116 73.4359C42.8784 73.7574 42.8099 74.102 42.8099 74.45Z" fill="#A855F7"/>
<path d="M42.8199 50.51C42.8199 51.968 44.0018 53.15 45.4599 53.15C46.9179 53.15 48.0999 51.968 48.0999 50.51C48.0999 49.052 46.9179 47.87 45.4599 47.87C44.0018 47.87 42.8199 49.052 42.8199 50.51Z" fill="#A855F7"/>
<path d="M43.1184 27.5912C43.6728 28.9397 45.2155 29.5835 46.564 29.029C47.9125 28.4746 48.5561 26.932 48.0017 25.5835C47.4473 24.235 45.9047 23.5912 44.5562 24.1457C43.2077 24.7001 42.5639 26.2427 43.1184 27.5912Z" fill="#A855F7"/>
<path d="M42.8099 2.64998C42.8099 3.1741 42.9653 3.68648 43.2565 4.12227C43.5476 4.55806 43.9615 4.89765 44.4457 5.09822C44.93 5.29879 45.4628 5.35135 45.9769 5.2491C46.4909 5.14685 46.9631 4.89449 47.3337 4.52388C47.7043 4.15327 47.9567 3.681 48.0589 3.16695C48.1612 2.6529 48.1087 2.12016 47.9081 1.63594C47.7076 1.15172 47.3679 0.737795 46.9321 0.446609C46.4963 0.155424 45.984 -4.58693e-05 45.4599 -4.58922e-05C44.7571 -4.59229e-05 44.083 0.279228 43.586 0.776199C43.0891 1.27317 42.8099 1.94715 42.8099 2.64998Z" fill="#A855F7"/>
<path d="M64.22 146.25C64.22 147.708 65.402 148.89 66.86 148.89C68.318 148.89 69.5 147.708 69.5 146.25C69.5 144.792 68.318 143.61 66.86 143.61C65.402 143.61 64.22 144.792 64.22 146.25Z" fill="#A855F7"/>
<path d="M64.22 122.31C64.22 123.768 65.402 124.95 66.86 124.95C68.318 124.95 69.5 123.768 69.5 122.31C69.5 120.852 68.318 119.67 66.86 119.67C65.402 119.67 64.22 120.852 64.22 122.31Z" fill="#A855F7"/>
<path d="M64.2498 98.38C64.2478 98.9049 64.4018 99.4187 64.6922 99.8561C64.9827 100.293 65.3965 100.635 65.8811 100.836C66.3657 101.038 66.8994 101.092 67.4143 100.99C67.9293 100.888 68.4024 100.635 68.7736 100.264C69.1448 99.8927 69.3974 99.4195 69.4994 98.9045C69.6013 98.3895 69.548 97.8559 69.3462 97.3713C69.1444 96.8867 68.8031 96.4729 68.3658 96.1825C67.9285 95.892 67.4148 95.738 66.8898 95.74C66.1905 95.7426 65.5204 96.0217 65.0259 96.5162C64.5314 97.0107 64.2524 97.6806 64.2498 98.38Z" fill="#A855F7"/>
<path d="M64.2498 74.45C64.2498 74.9746 64.4055 75.4873 64.6971 75.9233C64.9888 76.3593 65.4032 76.699 65.888 76.8993C66.3728 77.0995 66.9061 77.1514 67.4204 77.0483C67.9348 76.9452 68.4069 76.6919 68.7771 76.3203C69.1473 75.9487 69.399 75.4755 69.5001 74.9608C69.6012 74.4461 69.5473 73.913 69.3452 73.4289C69.1431 72.9449 68.8019 72.5318 68.3648 72.2418C67.9277 71.9518 67.4144 71.798 66.8898 71.8C66.5423 71.8 66.1981 71.8686 65.8772 72.0019C65.5562 72.1352 65.2648 72.3305 65.0195 72.5768C64.7742 72.823 64.5799 73.1152 64.4479 73.4366C64.3158 73.7581 64.2485 74.1025 64.2498 74.45Z" fill="#A855F7"/>
<path d="M64.22 50.51C64.22 51.968 65.402 53.15 66.86 53.15C68.318 53.15 69.5 51.968 69.5 50.51C69.5 49.052 68.318 47.87 66.86 47.87C65.402 47.87 64.22 49.052 64.22 50.51Z" fill="#A855F7"/>
<path d="M64.5207 27.5936C65.0751 28.9421 66.6178 29.5859 67.9663 29.0314C69.3148 28.477 69.9585 26.9343 69.404 25.5858C68.8496 24.2373 67.307 23.5936 65.9585 24.148C64.61 24.7025 63.9662 26.2451 64.5207 27.5936Z" fill="#A855F7"/>
<path d="M64.2498 2.65C64.2498 3.17454 64.4055 3.68726 64.6971 4.12326C64.9888 4.55927 65.4032 4.89894 65.888 5.09922C66.3728 5.29949 66.9061 5.35145 67.4204 5.24839C67.9348 5.14532 68.4069 4.89185 68.7771 4.52024C69.1473 4.14863 69.399 3.67557 69.5001 3.16086C69.6012 2.64615 69.5473 2.11305 69.3452 1.629C69.1431 1.14495 68.8019 0.731725 68.3648 0.441745C67.9277 0.151766 67.4144 -0.00200641 66.8898 -2.70206e-05C66.5423 -2.9529e-05 66.1981 0.0685799 65.8772 0.201877C65.5562 0.335175 65.2648 0.530622 65.0195 0.776828C64.7742 1.02304 64.5799 1.31524 64.4479 1.63669C64.3158 1.95815 64.2485 2.30247 64.2498 2.65Z" fill="#A855F7"/>
<path d="M85.6299 146.25C85.6299 147.708 86.8119 148.89 88.2699 148.89C89.7279 148.89 90.9099 147.708 90.9099 146.25C90.9099 144.792 89.7279 143.61 88.2699 143.61C86.8119 143.61 85.6299 144.792 85.6299 146.25Z" fill="#A855F7"/>
<path d="M85.6299 122.31C85.6299 123.768 86.8119 124.95 88.2699 124.95C89.7279 124.95 90.9099 123.768 90.9099 122.31C90.9099 120.852 89.7279 119.67 88.2699 119.67C86.8119 119.67 85.6299 120.852 85.6299 122.31Z" fill="#A855F7"/>
<path d="M85.6199 98.38C85.6179 98.9045 85.7716 99.4178 86.0616 99.8549C86.3516 100.292 86.7648 100.633 87.2489 100.835C87.7329 101.038 88.266 101.091 88.7807 100.99C89.2954 100.889 89.7686 100.638 90.1402 100.267C90.5118 99.8972 90.7652 99.425 90.8683 98.9107C90.9713 98.3964 90.9194 97.8631 90.7192 97.3783C90.5189 96.8934 90.1792 96.479 89.7432 96.1873C89.3072 95.8957 88.7945 95.7399 88.2699 95.7399C87.5688 95.7399 86.8963 96.0178 86.3996 96.5126C85.903 97.0075 85.6226 97.6789 85.6199 98.38Z" fill="#A855F7"/>
<path d="M85.6199 74.45C85.6199 74.9741 85.7753 75.4865 86.0665 75.9223C86.3577 76.3581 86.7716 76.6977 87.2558 76.8983C87.74 77.0988 88.2729 77.1513 88.7869 77.049C89.301 76.9468 89.7732 76.6944 90.1438 76.3238C90.5144 75.9532 90.7668 75.481 90.869 74.967C90.9713 74.4529 90.9188 73.9201 90.7182 73.4359C90.5176 72.9516 90.178 72.5378 89.7422 72.2467C89.3064 71.9555 88.7941 71.8 88.2699 71.8C87.9219 71.8 87.5773 71.8685 87.2558 72.0017C86.9343 72.1348 86.6422 72.3301 86.3961 72.5761C86.15 72.8222 85.9548 73.1144 85.8216 73.4359C85.6885 73.7574 85.6199 74.102 85.6199 74.45Z" fill="#A855F7"/>
<path d="M85.6299 50.51C85.6299 51.968 86.8119 53.15 88.2699 53.15C89.7279 53.15 90.9099 51.968 90.9099 50.51C90.9099 49.052 89.7279 47.87 88.2699 47.87C86.8119 47.87 85.6299 49.052 85.6299 50.51Z" fill="#A855F7"/>
<path d="M85.9323 27.5922C86.4868 28.9407 88.0294 29.5844 89.3779 29.03C90.7264 28.4755 91.3701 26.9329 90.8157 25.5844C90.2612 24.2359 88.7186 23.5921 87.3701 24.1466C86.0216 24.701 85.3779 26.2437 85.9323 27.5922Z" fill="#A855F7"/>
<path d="M85.6199 2.64998C85.6199 3.1741 85.7753 3.68648 86.0665 4.12227C86.3577 4.55806 86.7716 4.89765 87.2558 5.09822C87.74 5.29879 88.2729 5.35135 88.7869 5.2491C89.301 5.14685 89.7732 4.89449 90.1438 4.52388C90.5144 4.15327 90.7668 3.681 90.869 3.16695C90.9713 2.6529 90.9188 2.12016 90.7182 1.63594C90.5176 1.15172 90.178 0.737795 89.7422 0.446609C89.3064 0.155424 88.7941 -4.58693e-05 88.2699 -4.58922e-05C87.5671 -4.59229e-05 86.8931 0.279228 86.3961 0.776199C85.8991 1.27317 85.6199 1.94715 85.6199 2.64998Z" fill="#A855F7"/>
</g>
<defs>
<clipPath id="clip0_17_202">
<rect width="148.89" height="90.91" fill="white" transform="translate(90.9099) rotate(90)"/>
</clipPath>
</defs>
</svg>
